<?xml version="1.0" standalone="no"?>
<svg version="1.0" xmlns="http://www.w3.org/2000/svg"
 width="3000.000000pt" height="782.000000pt" viewBox="0 0 3000.000000 782.000000"
 preserveAspectRatio="xMidYMid meet">
<g transform="translate(0.000000,782.000000) scale(0.100000,-0.100000)"
fill="#0071c5" stroke="none">
<path d="M7095 7740 c-16 -5 -118 -13 -225 -20 -217 -13 -397 -34 -730 -85
-297 -46 -312 -49 -545 -100 -110 -24 -216 -46 -235 -50 -70 -13 -459 -119
-635 -172 -224 -69 -488 -160 -666 -230 -76 -29 -140 -53 -144 -53 -10 0 -296
-125 -440 -192 -284 -133 -502 -245 -660 -338 -44 -26 -85 -49 -90 -51 -6 -2
-36 -20 -68 -39 l-57 -35 0 -117 c0 -65 3 -118 6 -118 3 0 76 34 162 76 771
373 1512 634 2372 837 129 31 253 59 275 62 22 4 130 24 240 45 231 44 329 59
660 100 800 98 1533 98 2200 0 279 -42 341 -54 583 -116 317 -81 527 -158 796
-293 725 -364 1133 -920 1196 -1632 15 -168 -4 -384 -47 -539 -88 -319 -191
-531 -376 -780 -87 -116 -320 -351 -439 -442 -96 -74 -266 -188 -279 -188 -5
0 -9 -148 -9 -329 l0 -330 55 19 c80 28 275 125 390 196 760 465 1246 1237
1315 2084 22 269 -14 564 -109 890 -35 122 -117 298 -205 443 -244 402 -651
751 -1161 997 -183 88 -505 211 -670 256 -477 129 -875 201 -1237 224 -95 6
-192 15 -215 20 -51 12 -965 12 -1008 0z"/>
<path d="M8930 4573 c0 -1547 -3 -1472 65 -1611 53 -106 126 -180 235 -236 94
-49 216 -86 282 -86 l38 0 0 1665 0 1665 -310 0 -310 0 0 -1397z"/>
<path d="M10120 5955 c-56 -18 -124 -74 -149 -124 -100 -196 77 -410 290 -351
85 24 162 110 175 197 26 174 -152 330 -316 278z m167 -81 c52 -30 82 -78 90
-142 6 -53 -8 -94 -51 -147 -19 -23 -24 -25 -20 -10 3 12 -7 39 -25 67 l-29
46 24 23 c35 33 34 106 -2 140 -23 21 -35 24 -104 24 -80 0 -91 10 -28 25 46
12 96 3 145 -26z m-215 -145 c-3 -153 2 -172 47 -167 24 3 26 7 29 61 4 71 16
71 55 -2 23 -40 35 -53 59 -58 l30 -6 -23 -13 c-29 -16 -117 -18 -156 -3 -91
34 -141 164 -97 252 12 24 52 77 58 77 1 0 0 -63 -2 -141z"/>
<path d="M13700 4662 c0 -1432 0 -1430 60 -1698 77 -347 262 -641 517 -826
276 -198 678 -294 1128 -267 547 32 918 227 1168 612 61 95 103 186 151 328
104 310 106 337 106 1892 l0 1267 -280 0 -279 0 -4 -1347 c-3 -1315 -4 -1350
-24 -1449 -50 -243 -113 -391 -222 -521 -102 -121 -237 -197 -425 -239 -247
-56 -536 -46 -771 27 -75 23 -215 106 -273 162 -51 48 -120 142 -152 206 -39
78 -88 226 -112 337 l-23 109 -3 1358 -3 1357 -279 0 -280 0 0 -1308z"/>
<path d="M17700 3960 l0 -2010 265 0 265 0 0 1582 0 1581 29 -44 c15 -24 57
-89 91 -144 35 -55 87 -136 115 -180 28 -44 107 -168 175 -275 283 -445 424
-668 570 -895 49 -77 102 -160 117 -185 14 -25 54 -88 88 -140 34 -52 133
-207 220 -345 87 -137 199 -314 249 -392 96 -150 210 -329 302 -475 l56 -88
264 0 264 0 0 2010 0 2010 -265 0 -265 0 -2 -1592 -3 -1591 -94 149 c-51 82
-110 174 -129 204 -20 30 -84 132 -142 225 -138 221 -404 641 -489 775 -37 58
-87 137 -111 175 -24 39 -58 93 -76 120 -31 49 -311 492 -469 745 -43 69 -98
154 -121 190 -75 117 -300 474 -339 538 l-38 62 -263 0 -264 0 0 -2010z"/>
<path d="M21660 3960 l0 -2010 285 0 285 0 0 2010 0 2010 -285 0 -285 0 0
-2010z"/>
<path d="M22717 5963 c-4 -3 -7 -111 -7 -240 l0 -233 690 0 690 0 0 -1770 0
-1770 280 0 280 0 0 1770 0 1770 680 0 680 0 0 240 0 240 -1643 0 c-904 0
-1647 -3 -1650 -7z"/>
<path d="M26510 3960 l0 -2010 1290 0 1290 0 0 240 0 240 -1010 0 -1010 0 0
653 0 652 847 0 848 0 3 238 2 237 -850 0 -850 0 0 640 0 640 1010 0 1010 0 0
240 0 240 -1290 0 -1290 0 0 -2010z"/>
<path d="M29610 5955 c-92 -28 -165 -118 -177 -213 -22 -187 180 -329 352
-248 54 25 79 49 119 113 37 60 37 151 0 217 -34 61 -97 113 -158 131 -60 18
-77 18 -136 0z m115 -56 c118 -32 180 -162 126 -267 -37 -72 -87 -102 -173
-102 -91 0 -152 47 -179 138 -16 54 -1 119 39 172 l27 35 5 -155 5 -155 26 -3
c35 -4 47 14 51 73 l3 50 40 -60 c30 -46 47 -61 68 -63 40 -5 43 19 11 78
l-27 50 21 21 c32 29 30 98 -2 136 -23 26 -29 28 -104 28 -44 0 -79 2 -77 3 5
6 79 31 90 32 6 0 28 -5 50 -11z"/>
<path d="M1760 5585 l0 -295 310 0 310 0 0 295 0 295 -310 0 -310 0 0 -295z"/>
<path d="M5282 4383 l3 -1248 27 -80 c47 -139 134 -251 254 -327 150 -96 208
-108 542 -108 l232 0 0 255 0 255 -158 0 c-144 0 -162 2 -202 23 -30 15 -50
35 -64 62 -20 39 -21 57 -24 653 l-3 612 226 0 225 0 0 250 0 250 -225 0 -225
0 0 325 0 325 -305 0 -305 0 2 -1247z"/>
<path d="M1319 5535 c-48 -36 -336 -324 -424 -425 -189 -217 -350 -445 -477
-679 -43 -79 -78 -146 -78 -148 0 -2 -22 -55 -49 -116 -76 -176 -170 -496
-186 -637 -4 -30 -11 -82 -17 -115 -19 -101 -15 -599 6 -740 94 -650 364
-1146 856 -1569 430 -370 994 -638 1715 -815 154 -38 327 -76 385 -86 457 -72
583 -88 850 -107 215 -15 1162 -15 1400 0 308 19 559 46 925 97 268 38 291 42
535 89 124 25 243 47 265 51 74 12 498 115 705 171 382 103 845 253 1120 363
97 39 152 62 350 146 110 47 264 120 355 168 44 23 104 53 133 67 l52 24 0
448 c0 319 -3 448 -11 448 -6 0 -36 -15 -67 -34 -106 -62 -277 -152 -417 -218
-194 -92 -384 -178 -393 -178 -4 0 -61 -22 -127 -49 -329 -137 -892 -323
-1305 -431 -270 -70 -729 -175 -880 -200 -433 -72 -560 -92 -710 -109 -168
-19 -241 -25 -670 -57 -457 -34 -1129 -29 -1550 12 -85 8 -203 19 -261 24
-367 33 -965 173 -1289 301 -782 311 -1237 759 -1434 1412 -62 203 -95 525
-77 744 29 349 94 621 223 928 50 120 173 360 228 445 16 25 37 58 46 74 40
71 192 271 270 356 l33 35 3 168 c2 92 3 167 2 167 0 0 -16 -11 -35 -25z"/>
<path d="M7495 5024 c-287 -29 -509 -127 -686 -303 -238 -239 -355 -591 -335
-1013 11 -235 47 -389 136 -573 96 -197 236 -340 433 -438 185 -93 338 -121
610 -114 250 6 360 30 527 114 108 54 266 168 330 237 l25 28 -25 20 c-19 15
-310 290 -351 332 -3 4 -21 -8 -40 -25 -150 -141 -278 -189 -499 -190 -121 -1
-220 19 -291 57 -130 71 -224 224 -245 397 l-6 57 761 0 761 0 0 128 c0 139
-15 336 -31 422 -26 138 -101 325 -177 440 -173 261 -437 409 -757 423 -55 3
-118 3 -140 1z m238 -543 c132 -52 247 -239 247 -405 l0 -46 -451 0 -450 0 6
48 c31 225 141 363 335 416 81 23 238 16 313 -13z"/>
<path d="M1760 4058 c0 -1011 -1 -985 60 -1132 39 -92 129 -190 229 -248 62
-36 242 -88 304 -88 l27 0 0 1195 0 1195 -310 0 -310 0 0 -922z"/>
<path d="M2890 3795 l0 -1185 310 0 310 0 0 935 0 935 283 0 c347 -1 374 -8
418 -105 18 -38 19 -87 19 -902 l0 -863 310 0 311 0 -3 898 c-3 895 -3 897
-26 977 -56 200 -169 344 -332 424 -143 70 -160 71 -927 71 l-673 0 0 -1185z"/>
</g>
</svg>
